<?xml version="1.0" encoding="UTF-8"?>
<!-- Generated by Pixelmator Pro 2.4.5 -->
<svg width="150" height="40" viewBox="0 0 150 40" xmlns="http://www.w3.org/2000/svg" xmlns:xlink="http://www.w3.org/1999/xlink">
    <g id="Group">
        <path id="Path" fill="#999999" stroke="none" d="M 91.875 0 C 93.600891 0 95 1.399109 95 3.125 L 95 36.875 C 95 38.600891 93.600891 40 91.875 40 L 58.125 40 C 56.399109 40 55 38.600891 55 36.875 L 55 3.125 C 55 1.399109 56.399109 0 58.125 0 L 91.875 0 Z M 91.875 0.78125 L 58.125 0.78125 C 56.843525 0.78125 55.802261 1.8097 55.78125 3.086243 L 55.78125 3.125 L 55.78125 36.875 C 55.78125 38.156475 56.8097 39.197739 58.086243 39.21875 L 58.125 39.21875 L 91.875 39.21875 C 93.156471 39.21875 94.197739 38.1903 94.21875 36.913757 L 94.21875 36.875 L 94.21875 3.125 C 94.21875 1.843525 93.1903 0.802261 91.913757 0.78125 L 91.875 0.78125 Z"/>
        <path id="path1" fill="#999999" fill-rule="evenodd" stroke="none" d="M 95 8.59375 L 95 8.59375 C 95 8.378016 94.825111 8.203125 94.609375 8.203125 L 55.390625 8.203125 C 55.174889 8.203125 55 8.378014 55 8.59375 L 55 8.59375 C 55 8.809486 55.174889 8.984375 55.390625 8.984375 L 94.609375 8.984375 C 94.825111 8.984375 95 8.809486 95 8.59375 Z"/>
        <path id="path2" fill="#999999" fill-rule="evenodd" stroke="none" d="M 56.21492 1.05312 L 56.21492 1.05312 C 56.062374 1.205669 56.062374 1.452999 56.21492 1.605545 L 62.92691 8.317537 C 63.07946 8.470085 63.32679 8.470085 63.47934 8.317537 L 63.47934 8.317537 C 63.631886 8.164988 63.631886 7.917656 63.47934 7.76511 L 56.767349 1.05312 C 56.614799 0.90057 56.36747 0.90057 56.21492 1.05312 Z"/>
        <path id="path3" fill="#999999" fill-rule="evenodd" stroke="none" d="M 63.984375 0 L 63.203125 0 L 63.203125 40 L 63.984375 40 Z"/>
        <path id="path4" fill="#999999" fill-rule="evenodd" stroke="none" d="M 71.627602 0 L 70.846352 0 L 70.846352 40 L 71.627602 40 Z"/>
        <path id="path5" fill="#999999" fill-rule="evenodd" stroke="none" d="M 79.270836 0 L 78.489586 0 L 78.489586 40 L 79.270836 40 Z"/>
        <path id="path6" fill="#999999" fill-rule="evenodd" stroke="none" d="M 86.914063 0 L 86.132813 0 L 86.132813 40 L 86.914063 40 Z"/>
    </g>
</svg>
